<?xml version="1.0" encoding="UTF-8"?>
<svg version="1.1" xmlns="http://www.w3.org/2000/svg" width="800" height="800">
<path d="M0 0 C1.08539062 0.69867188 2.17078125 1.39734375 3.2890625 2.1171875 C6.21920866 4.04227033 9.11550969 6.0072204 12 8 C13.0828125 8.74507813 14.165625 9.49015625 15.28125 10.2578125 C33.74834579 23.11943485 50.12726111 38.07420111 66.07180786 53.89758301 C67.17316549 54.99022848 68.27588506 56.08150321 69.38009644 57.17126465 C76.40049117 64.11065432 82.87269373 71.24230149 89 79 C90.02399903 80.24364697 91.05093307 81.48488877 92.08203125 82.72265625 C99.74357781 92.04630387 106.50204715 101.83721134 113 112 C113.38140137 112.59554687 113.76280273 113.19109375 114.15576172 113.8046875 C116.50566136 117.49692262 118.77051572 121.23404087 121 125 C121.50297607 125.84353027 121.50297607 125.84353027 122.01611328 126.70410156 C147.39882551 169.53964103 162.88733716 217.67009657 169 267 C169.10296387 267.75055664 169.20592773 268.50111328 169.31201172 269.27441406 C180.24271933 350.46902257 159.2154215 438.42596429 115 507 C114.30132813 508.08539062 113.60265625 509.17078125 112.8828125 510.2890625 C110.95772967 513.21920866 108.9927796 516.11550969 107 519 C106.25492188 520.0828125 105.50984375 521.165625 104.7421875 522.28125 C91.88056515 540.74834579 76.92579889 557.12726111 61.10241699 573.07180786 C60.00977152 574.17316549 58.91849679 575.27588506 57.82873535 576.38009644 C50.88934568 583.40049117 43.75769851 589.87269373 36 596 C34.75635303 597.02399903 33.51511123 598.05093307 32.27734375 599.08203125 C22.95369613 606.74357781 13.16278866 613.50204715 3 620 C2.40445313 620.38140137 1.80890625 620.76280273 1.1953125 621.15576172 C-2.49692262 623.50566136 -6.23404087 625.77051572 -10 628 C-10.56235352 628.33531738 -11.12470703 628.67063477 -11.70410156 629.01611328 C-54.53964103 654.39882551 -102.67009657 669.88733716 -152 676 C-152.75055664 676.10296387 -153.50111328 676.20592773 -154.27441406 676.31201172 C-235.46902257 687.24271933 -323.42596429 666.2154215 -392 622 C-393.08539063 621.30132813 -394.17078125 620.60265625 -395.2890625 619.8828125 C-398.21920866 617.95772967 -401.11550969 615.9927796 -404 614 C-405.0828125 613.25492188 -406.165625 612.50984375 -407.28125 611.7421875 C-425.74834579 598.88056515 -442.12726111 583.92579889 -458.07180786 568.10241699 C-459.17316549 567.00977152 -460.27588506 565.91849679 -461.38009644 564.82873535 C-468.40049117 557.88934568 -474.87269373 550.75769851 -481 543 C-482.02399903 541.75635303 -483.05093307 540.51511123 -484.08203125 539.27734375 C-491.74357781 529.95369613 -498.50204715 520.16278866 -505 510 C-505.38140137 509.40445313 -505.76280273 508.80890625 -506.15576172 508.1953125 C-508.50566136 504.50307738 -510.77051572 500.76595913 -513 497 C-513.50297607 496.15646973 -513.50297607 496.15646973 -514.01611328 495.29589844 C-539.39882551 452.46035897 -554.88733716 404.32990343 -561 355 C-561.1544458 353.87416504 -561.1544458 353.87416504 -561.31201172 352.72558594 C-572.24271933 271.53097743 -551.2154215 183.57403571 -507 115 C-505.95199219 113.37191406 -505.95199219 113.37191406 -504.8828125 111.7109375 C-502.95772967 108.78079134 -500.9927796 105.88449031 -499 103 C-498.25492187 101.9171875 -497.50984375 100.834375 -496.7421875 99.71875 C-483.88056515 81.25165421 -468.92579889 64.87273889 -453.10241699 48.92819214 C-452.00977152 47.82683451 -450.91849679 46.72411494 -449.82873535 45.61990356 C-442.88934568 38.59950883 -435.75769851 32.12730627 -428 26 C-426.75635303 24.97600097 -425.51511123 23.94906693 -424.27734375 22.91796875 C-414.95369613 15.25642219 -405.16278866 8.49795285 -395 2 C-394.40445313 1.61859863 -393.80890625 1.23719727 -393.1953125 0.84423828 C-389.50307738 -1.50566136 -385.76595913 -3.77051572 -382 -6 C-381.43764648 -6.33531738 -380.87529297 -6.67063477 -380.29589844 -7.01611328 C-337.46035897 -32.39882551 -289.32990343 -47.88733716 -240 -54 C-238.87416504 -54.1544458 -238.87416504 -54.1544458 -237.72558594 -54.31201172 C-156.53097743 -65.24271933 -68.57403571 -44.2154215 0 0 Z M-168 13 C-166.56594155 16.86140222 -164.76853075 20.29785785 -162.68359375 23.84765625 C-162.3556633 24.40757263 -162.02773285 24.96748901 -161.68986511 25.54437256 C-160.60950046 27.38598605 -159.52373351 29.22434289 -158.4375 31.0625 C-157.67034754 32.36609271 -156.90325878 33.66972291 -156.13623047 34.97338867 C-150.35009812 44.78977608 -144.4539602 54.53669915 -138.51928711 64.26391602 C-133.11035944 73.13543185 -127.79147039 82.05800689 -122.5 91 C-116.55968925 101.03709232 -110.5716568 111.0418 -104.5 121 C-98.01673213 131.63328845 -91.63522658 142.3236673 -85.29199219 153.04101562 C-79.752948 162.39684248 -74.15990613 171.71681779 -68.5 181 C-61.10445048 193.13360896 -53.83636129 205.34007646 -46.59410095 217.56567383 C-46.20984451 218.21431396 -45.82558807 218.8629541 -45.4296875 219.53125 C-45.05119156 220.17022217 -44.67269562 220.80919434 -44.2827301 221.4675293 C-39.22550241 230.00052358 -34.11680417 238.5026326 -29 247 C-26.0867391 244.25731767 -23.91112917 241.53908236 -21.8203125 238.1328125 C-21.22839111 237.17592529 -20.63646973 236.21903809 -20.02661133 235.2331543 C-19.08531372 233.69461792 -19.08531372 233.69461792 -18.125 232.125 C-16.778156 229.94611229 -15.43048132 227.76773787 -14.08203125 225.58984375 C-13.40092285 224.48753418 -12.71981445 223.38522461 -12.01806641 222.24951172 C-8.9881832 217.37076197 -5.90379106 212.52749199 -2.8125 207.6875 C-1.65480165 205.87248912 -0.49724777 204.05738608 0.66015625 202.2421875 C1.21848145 201.3665918 1.77680664 200.49099609 2.35205078 199.58886719 C6.43140283 193.1803562 10.47961233 186.75209761 14.53222656 180.32666016 C17.51361244 175.60067756 20.49835866 170.87681591 23.48291016 166.15283203 C26.08465821 162.03432386 28.68442554 157.91458346 31.28125 153.79296875 C31.82007813 152.93832031 32.35890625 152.08367187 32.9140625 151.203125 C33.94073217 149.57461449 34.96681261 147.94573231 35.9921875 146.31640625 C36.69214844 145.20652344 36.69214844 145.20652344 37.40625 144.07421875 C37.84324219 143.37345215 38.28023437 142.67268555 38.73046875 141.95068359 C40 140 40 140 41.30078125 138.30322266 C42.63284295 136.63109559 42.63284295 136.63109559 44 134 C43.19368933 129.92502992 40.76109966 127.19588586 38.125 124.0625 C37.31675781 123.10085937 36.50851562 122.13921875 35.67578125 121.1484375 C35.24088379 120.63764648 34.80598633 120.12685547 34.35791016 119.60058594 C32.97010566 117.96476316 31.59965275 116.31548847 30.23046875 114.6640625 C19.86529225 102.25537011 8.73281312 90.98956477 -4 81 C-5.1297105 80.07156748 -6.25719226 79.14041854 -7.3828125 78.20703125 C-46.06536776 46.31519308 -92.95222783 25.49185819 -142.0625 16.1875 C-143.15626953 15.98020264 -144.25003906 15.77290527 -145.37695312 15.55932617 C-152.89963716 14.20727312 -160.37202476 13.45292321 -168 13 Z M-326 41 C-326.9182959 41.45101074 -327.8365918 41.90202148 -328.78271484 42.36669922 C-342.1992328 48.99971069 -354.81532782 56.31371324 -367 65 C-367.79954102 65.56509277 -368.59908203 66.13018555 -369.42285156 66.71240234 C-379.57145089 73.91508329 -389.00042839 81.40949983 -398 90 C-399.34671041 91.17526573 -400.70018778 92.34285528 -402.0625 93.5 C-410.95424898 101.24799703 -418.69450321 109.76069523 -426 119 C-427.00371857 120.23818831 -428.00901768 121.47509651 -429.015625 122.7109375 C-438.50804659 132.60197561 -438.50804659 132.60197561 -444 144 C-353.25 144 -262.5 144 -169 144 C-174.04693465 135.16786437 -179.11314707 126.36548294 -184.3125 117.625 C-184.99821931 116.47067583 -185.68384464 115.31629583 -186.36938477 114.16186523 C-187.45311708 112.33705502 -188.5370012 110.51233594 -189.62138367 108.68791199 C-192.30735544 104.16863741 -194.98671388 99.64548103 -197.6640625 95.12109375 C-205.94971787 81.12575765 -214.27289757 67.15643795 -222.77026367 53.28833008 C-226.41639179 47.32299436 -229.97932304 41.32724462 -233.44140625 35.25390625 C-234.52806085 33.3630343 -235.61583228 31.47280841 -236.70376587 29.58267212 C-237.72866699 27.78736871 -238.73285294 25.98149511 -239.73706055 24.17456055 C-240.35492432 23.10117432 -240.97278809 22.02778809 -241.609375 20.921875 C-242.14530273 19.96893555 -242.68123047 19.01599609 -243.23339844 18.03417969 C-244.82063847 15.76370773 -244.82063847 15.76370773 -247.3918457 15.63232422 C-274.32882243 19.42967393 -301.70330488 28.92074483 -326 41 Z M81 200 C80.14334138 201.24671498 79.33728351 202.5281916 78.55078125 203.8203125 C78.0395874 204.65449707 77.52839355 205.48868164 77.00170898 206.34814453 C76.44427002 207.26450684 75.88683105 208.18086914 75.3125 209.125 C70.58422553 216.83321301 65.8044203 224.50352623 60.9375 232.125 C59.76170588 233.9674397 58.58592454 235.80988756 57.41015625 237.65234375 C56.55381592 238.99401611 56.55381592 238.99401611 55.68017578 240.36279297 C53.0672874 244.46398744 50.46995855 248.57494458 47.875 252.6875 C47.38765381 253.45980957 46.90030762 254.23211914 46.39819336 255.02783203 C45.42128403 256.57626986 44.44447695 258.12477219 43.46777344 259.67333984 C40.98016643 263.61660245 38.48993586 267.55820768 36 271.5 C34.99998776 273.0833256 33.99998775 274.66665893 33 276.25 C15 304.75 -3 333.25 -21 361.75 C-21.4952417 362.53415283 -21.9904834 363.31830566 -22.50073242 364.1262207 C-23.4982175 365.70553146 -24.49577579 367.28479598 -25.4934082 368.86401367 C-28.03249671 372.88351145 -30.57020834 376.90386767 -33.10546875 380.92578125 C-33.6169043 381.73668213 -34.12833984 382.54758301 -34.65527344 383.38305664 C-35.66549153 384.98482214 -36.67526745 386.58686662 -37.68457031 388.18920898 C-40.01740448 391.88674337 -42.36445211 395.57312851 -44.75390625 399.234375 C-45.38872925 400.2092688 -45.38872925 400.2092688 -46.03637695 401.20385742 C-46.82381717 402.40980841 -47.61510123 403.61326154 -48.41088867 404.8137207 C-50.40611164 407.66722097 -50.40611164 407.66722097 -51 411 C-5.46 411 40.08 411 87 411 C95.50046541 381.73621194 95.50046541 381.73621194 101 352 C101.08293304 351.35171234 101.16586609 350.70342468 101.25131226 350.03549194 C102.85102011 337.31601639 103.36462674 324.75039477 103.3125 311.9375 C103.31067719 311.00045227 103.30885437 310.06340454 103.30697632 309.09796143 C103.25733366 293.87561319 102.5398912 279.03756833 100 264 C99.83902832 263.00581055 99.67805664 262.01162109 99.51220703 260.98730469 C97.3648427 248.07011405 94.18156342 235.53201459 90.4375 223 C89.87361572 221.1123291 89.87361572 221.1123291 89.29833984 219.18652344 C87.26490347 212.57585118 85.03005372 206.22267059 82 200 C81.67 200 81.34 200 81 200 Z M-479 211 C-487.50117181 240.26320656 -487.50117181 240.26320656 -493 270 C-493.08293304 270.65127869 -493.16586609 271.30255737 -493.25131226 271.97357178 C-494.81950245 284.50400953 -495.36535349 296.87786268 -495.3125 309.5 C-495.31067719 310.41175995 -495.30885437 311.3235199 -495.30697632 312.26290894 C-495.1993429 344.42286143 -492.92753488 384.28217195 -477 413 C-473.4613748 408.73882003 -470.37374923 404.24162251 -467.28515625 399.65234375 C-466.72642319 398.82529434 -466.16769012 397.99824493 -465.59202576 397.14613342 C-463.74627311 394.41165048 -461.90417874 391.67472812 -460.0625 388.9375 C-459.42296387 387.9885083 -458.78342773 387.0395166 -458.12451172 386.06176758 C-447.87998928 370.85731357 -437.75805839 355.57502132 -427.69436646 340.25045776 C-418.14042248 325.70576513 -408.45803602 311.25339665 -398.70159912 296.84390259 C-388.60661699 281.92924669 -378.65961579 266.92170054 -368.77334595 251.86801147 C-361.23823624 240.39499945 -353.67295988 228.95240203 -345.85595703 217.66870117 C-345.3298584 216.9079126 -344.80375977 216.14712402 -344.26171875 215.36328125 C-343.81787842 214.72688721 -343.37403809 214.09049316 -342.91674805 213.43481445 C-341.91026421 212.14333335 -341.91026421 212.14333335 -342 211 C-387.21 211 -432.42 211 -479 211 Z M-269.91805649 223.46427536 C-270.65754568 225.19019716 -271.3705363 226.92779404 -272.05230427 228.67732048 C-273.28875954 231.70771225 -274.87282384 234.21786823 -276.70703125 236.921875 C-277.22257568 237.72608887 -277.73812012 238.53030273 -278.26928711 239.35888672 C-278.77854736 240.1479541 -279.28780762 240.93702148 -279.8125 241.75 C-280.99822781 243.60102982 -282.18309247 245.45261277 -283.3671875 247.3046875 C-284.26195801 248.70412598 -284.26195801 248.70412598 -285.17480469 250.13183594 C-290.19368144 258.01864227 -295.11935781 265.96458635 -300.06494141 273.89746094 C-303.41424572 279.26750374 -306.77001145 284.6335074 -310.125 290 C-312.77905219 294.24559813 -312.77905219 294.24559813 -315.41894531 298.5 C-316.43484459 300.10636328 -317.48411028 301.69235884 -318.57324219 303.25 C-320.64485862 306.26118645 -321.94524902 308.19187553 -322.1953125 311.8828125 C-320.37644759 316.62612687 -317.67583168 320.65405474 -314.875 324.875 C-313.58877681 326.85347345 -312.30365776 328.83266506 -311.01953125 330.8125 C-310.02107178 332.34390625 -310.02107178 332.34390625 -309.00244141 333.90625 C-305.79672742 338.85904293 -302.6795869 343.86612981 -299.5625 348.875 C-298.30347804 350.89328695 -297.04436294 352.9115158 -295.78515625 354.9296875 C-294.84760498 356.43354004 -294.84760498 356.43354004 -293.89111328 357.96777344 C-290.76456569 362.98090551 -287.63192609 367.99022714 -284.5 373 C-283.89148193 373.97388672 -283.28296387 374.94777344 -282.65600586 375.95117188 C-279.7156575 380.65697006 -276.77399581 385.36193376 -273.82830811 390.06439209 C-272.77262842 391.74978389 -271.71736592 393.43543698 -270.66210938 395.12109375 C-269.32820494 397.25175989 -267.99359634 399.38198538 -266.65820312 401.51171875 C-266.06201172 402.46433594 -265.46582031 403.41695312 -264.8515625 404.3984375 C-264.32385254 405.24067871 -263.79614258 406.08291992 -263.25244141 406.95068359 C-262 409 -262 409 -261 411 C-244.25829959 411.46841182 -227.51874051 411.82044118 -210.77206039 412.03624344 C-202.99489371 412.13913858 -195.22180966 412.27921989 -187.44726562 412.50878906 C-180.66593105 412.70893397 -173.88755197 412.83733553 -167.10334611 412.8817699 C-163.51324842 412.90773485 -159.93159911 412.96808004 -156.34423065 413.11460114 C-141.65025527 414.27684912 -141.65025527 414.27684912 -128.63842201 409.0369339 C-124.68843015 404.28067056 -122.18082302 399.05324396 -119.94769573 393.32267952 C-118.71124046 390.29228775 -117.12717616 387.78213177 -115.29296875 385.078125 C-114.77742432 384.27391113 -114.26187988 383.46969727 -113.73071289 382.64111328 C-113.22145264 381.8520459 -112.71219238 381.06297852 -112.1875 380.25 C-111.00177219 378.39897018 -109.81690753 376.54738723 -108.6328125 374.6953125 C-108.03629883 373.76235352 -107.43978516 372.82939453 -106.82519531 371.86816406 C-101.80631856 363.98135773 -96.88064219 356.03541365 -91.93505859 348.10253906 C-88.58575428 342.73249626 -85.22998855 337.3664926 -81.875 332 C-79.22094781 327.75440187 -79.22094781 327.75440187 -76.58105469 323.5 C-75.56515541 321.89363672 -74.51588972 320.30764116 -73.42675781 318.75 C-71.35514138 315.73881355 -70.05475098 313.80812447 -69.8046875 310.1171875 C-71.62355241 305.37387313 -74.32416832 301.34594526 -77.125 297.125 C-78.41122319 295.14652655 -79.69634224 293.16733494 -80.98046875 291.1875 C-81.6461084 290.1665625 -82.31174805 289.145625 -82.99755859 288.09375 C-86.20327258 283.14095707 -89.3204131 278.13387019 -92.4375 273.125 C-93.69652196 271.10671305 -94.95563706 269.0884842 -96.21484375 267.0703125 C-96.83987793 266.06774414 -97.46491211 265.06517578 -98.10888672 264.03222656 C-101.23543431 259.01909449 -104.36807391 254.00977286 -107.5 249 C-108.10851807 248.02611328 -108.71703613 247.05222656 -109.34399414 246.04882812 C-112.2843425 241.34302994 -115.22600419 236.63806624 -118.17169189 231.93560791 C-119.22737158 230.25021611 -120.28263408 228.56456302 -121.33789062 226.87890625 C-122.67179506 224.74824011 -124.00640366 222.61801462 -125.34179688 220.48828125 C-125.93798828 219.53566406 -126.53417969 218.58304687 -127.1484375 217.6015625 C-127.67614746 216.75932129 -128.20385742 215.91708008 -128.74755859 215.04931641 C-130 213 -130 213 -131 211 C-147.74170041 210.53158818 -164.48125949 210.17955882 -181.22793961 209.96375656 C-189.00510629 209.86086142 -196.77819034 209.72078011 -204.55273438 209.49121094 C-211.33406895 209.29106603 -218.11244803 209.16266447 -224.89665389 209.1182301 C-228.48675158 209.09226515 -232.06840089 209.03191996 -235.65576935 208.88539886 C-251.34739635 208.26881307 -262.48862494 207.95347428 -269.91805649 223.46427536 Z M-367 370 C-368.11734241 371.5095054 -369.18471556 373.05595159 -370.234375 374.61328125 C-370.93828369 375.65395752 -371.64219238 376.69463379 -372.36743164 377.7668457 C-373.16169714 378.94867937 -373.95588355 380.13056619 -374.75 381.3125 C-375.59012489 382.55773051 -376.43054735 383.80276031 -377.27124023 385.04760742 C-379.14674438 387.82604363 -381.0200504 390.60594702 -382.89208984 393.38671875 C-386.1889644 398.28272032 -389.49478356 403.17265614 -392.80078125 408.0625 C-398.32905256 416.23997104 -403.84192486 424.42769393 -409.34912109 432.61936951 C-413.13877716 438.25108586 -416.95009775 443.86739498 -420.77861023 449.47276306 C-423.23581116 453.07487777 -425.68122953 456.68489169 -428.1244812 460.29647827 C-429.28494992 462.00585369 -430.45069295 463.71166115 -431.62185669 465.41372681 C-433.23826042 467.76418478 -434.83587353 470.12637667 -436.4296875 472.4921875 C-436.9114595 473.18288834 -437.39323151 473.87358917 -437.88960266 474.58522034 C-439.77626925 477.42006852 -441.02032661 479.3121621 -440.91796875 482.77587891 C-439.54154047 486.11078892 -437.39664828 488.7410459 -435.125 491.5 C-434.63104736 492.11238525 -434.13709473 492.72477051 -433.62817383 493.35571289 C-432.09612092 495.24616066 -430.54987501 497.12414936 -429 499 C-428.5477002 499.55284668 -428.09540039 500.10569336 -427.62939453 500.67529297 C-404.52866335 528.86179316 -377.01929328 553.31870371 -345 571 C-344.0713916 571.51675293 -343.1427832 572.03350586 -342.18603516 572.56591797 C-307.75431068 591.55021784 -264.08432607 609.80461238 -224 609 C-225.43405845 605.13859778 -227.23146925 601.70214215 -229.31640625 598.15234375 C-229.6443367 597.59242737 -229.97226715 597.03251099 -230.31013489 596.45562744 C-231.39049954 594.61401395 -232.47626649 592.77565711 -233.5625 590.9375 C-234.32965246 589.63390729 -235.09674122 588.33027709 -235.86376953 587.02661133 C-241.64990188 577.21022392 -247.5460398 567.46330085 -253.48071289 557.73608398 C-258.88964056 548.86456815 -264.20852961 539.94199311 -269.5 531 C-275.44031075 520.96290768 -281.4283432 510.9582 -287.5 501 C-293.98326787 490.36671155 -300.36477342 479.6763327 -306.70800781 468.95898438 C-312.24705246 459.60315673 -317.84014642 450.28321469 -323.5 441 C-329.60893045 430.97679708 -335.6409668 420.91076289 -341.625 410.8125 C-342.4216855 409.46873415 -343.21839754 408.12498402 -344.01513672 406.78125 C-345.19113614 404.7976851 -346.36710381 402.81410139 -347.54299927 400.83047485 C-348.69519951 398.88690414 -349.84754378 396.94341895 -351 395 C-351.56702637 394.04380768 -351.56702637 394.04380768 -352.14550781 393.06829834 C-354.63288409 388.87539574 -357.12740493 384.6868235 -359.625 380.5 C-360.25873535 379.43112549 -360.8924707 378.36225098 -361.54541016 377.26098633 C-362.40851807 375.81695435 -362.40851807 375.81695435 -363.2890625 374.34375 C-363.79131348 373.50005859 -364.29356445 372.65636719 -364.81103516 371.78710938 C-365.20339355 371.19736328 -365.59575195 370.60761719 -366 370 C-366.33 370 -366.66 370 -367 370 Z M-223 478 C-217.95306535 486.83213563 -212.88685293 495.63451706 -207.6875 504.375 C-207.00178069 505.52932417 -206.31615536 506.68370417 -205.63061523 507.83813477 C-204.54688292 509.66294498 -203.4629988 511.48766406 -202.37861633 513.31208801 C-199.69264456 517.83136259 -197.01328612 522.35451897 -194.3359375 526.87890625 C-186.05106569 540.87291883 -177.70451034 554.82511373 -169.24072266 568.71166992 C-161.71528768 581.07488452 -154.34916653 593.53140796 -147 606 C-92.64694155 602.38207196 -35.86444648 570.20547058 3.63671875 534.14453125 C5.7074303 532.26548887 7.81078337 530.43985594 9.9375 528.625 C18.86033809 520.81751667 26.65456735 512.28981188 34 503 C35.00371857 501.76181169 36.00901768 500.52490349 37.015625 499.2890625 C46.50804659 489.39802439 46.50804659 489.39802439 52 478 C-38.75 478 -129.5 478 -223 478 Z " fill="#F0F0F0" transform="translate(596,89)"/>
</svg>
